<?xml version="1.0" standalone="no"?>
<!DOCTYPE svg PUBLIC "-//W3C//DTD SVG 20010904//EN"
 "http://www.w3.org/TR/2001/REC-SVG-20010904/DTD/svg10.dtd">
<svg version="1.0" xmlns="http://www.w3.org/2000/svg"
 width="96.000000pt" height="96.000000pt" viewBox="0 0 96.000000 96.000000"
 preserveAspectRatio="xMidYMid meet">
<metadata>
Created by potrace 1.14, written by Peter Selinger 2001-2017
</metadata>
<g transform="translate(0.000000,96.000000) scale(0.100000,-0.100000)"
fill="#000000" stroke="none">
<path d="M412 883 c-37 -18 -75 -64 -87 -103 -4 -14 -25 -40 -46 -58 -57 -49
-91 -128 -97 -223 -5 -78 -5 -79 -31 -79 -45 0 -51 -15 -51 -130 0 -115 6
-130 52 -130 26 0 28 -3 28 -38 0 -21 5 -43 12 -50 17 -17 559 -17 576 0 7 7
12 29 12 50 0 35 2 38 28 38 46 0 52 15 52 130 0 115 -6 130 -51 130 -26 0
-27 1 -31 78 -6 96 -31 156 -92 217 -25 25 -48 56 -52 69 -10 40 -62 95 -102
106 -51 14 -82 12 -120 -7z m152 -62 c16 -17 28 -33 25 -35 -3 -3 -23 -1 -44
5 -39 11 -124 7 -159 -7 -16 -6 -17 -4 -8 12 12 22 40 49 62 57 34 14 93 -2
124 -32z"/>
</g>
</svg>
